<?xml version="1.0" encoding="utf-8"?>
<!-- Generator: Adobe Illustrator 19.2.1, SVG Export Plug-In . SVG Version: 6.00 Build 0)  -->
<svg version="1.1" id="fist_Image" xmlns="http://www.w3.org/2000/svg" xmlns:xlink="http://www.w3.org/1999/xlink" x="0px" y="0px"
	 viewBox="0 0 1700 1700" style="enable-background:new 0 0 1700 1700;" xml:space="preserve">
<style type="text/css">
	.st0{fill:#FFFFFF;}
	.st1{fill:#000503;}
	.st2{fill:#666666;}
	.st3{fill:#2DA5DC;}
	.st4{font-family:'CaviarDreams-Bold';}
	.st5{font-size:140.6495px;}
	.st6{font-size:140px;}
	.st7{font-size:139.7548px;}
	.st8{font-size:139.8039px;}
	.st9{font-size:139.6145px;}
	.st10{font-size:140.1749px;}
	.st11{font-size:139.6706px;}
	.st12{font-size:140.5937px;}
	.st13{font-size:139.3967px;}
	.st14{font-size:139.2842px;}
	.st15{font-size:139.8669px;}
	.st16{font-size:140.6147px;}
	.st17{font-size:139.8109px;}
</style>
<title>SCARF</title>
<g id="Ellipse_1">
	<g id="Ellipse_1-2">
		<path class="st0" d="M850,1589c-408.3-0.2-739-331.4-738.8-739.7c0.2-296.8,177.8-564.7,451.1-680.3
			c376.1-158.8,809.8,17.3,968.6,393.4s-17.3,809.8-393.4,968.6l0,0C1046.6,1569.5,948.8,1589.2,850,1589z"/>
		<path d="M850,222c125.1-0.3,247.4,37,351,107.1c67,45.3,124.6,102.9,169.9,169.9c143.3,212,143.3,489.9,0,701.9
			c-45.2,67-102.9,124.7-169.9,170c-212,143.3-489.9,143.3-701.9,0c-67-45.2-124.7-102.9-170-169.9c-143.3-212-143.3-489.9,0-701.9
			c45.2-67,102.9-124.7,169.9-170C602.6,259,724.9,221.7,850,222 M850,0C380.6,0,0,380.6,0,850s380.6,850,850,850s850-380.6,850-850
			S1319.4,0,850,0L850,0z"/>
	</g>
</g>
<path class="st1" d="M874,1405.7c-2.6,0.5-5.2,0.9-7.8,1.1c-74.4,0-148.9-0.1-223.3,0.1c-9.1,0-12-2.8-10.7-12.1
	c15.1-108.1,30-216.3,44.8-324.5c1.6-11.5-7.9-18.3-13.4-26.4C602.7,953.4,541.6,863,480.3,772.8c-15-22.2-29.9-44.4-45.1-66.5
	c-7.5-10.9-7.1-21.4,0.2-32c56.9-82.1,113.9-164.1,171-246.1c2.7-3.9,6.8-6.7,10.2-10.1c6.9,0.5,13.4-1.9,20.7,1.2
	c76.3,33.3,152.9,65.9,229.3,99c18.1,7.8,24.3,19.6,22.1,39.1c-1.5,12.9-3.3,25.8-4.4,38.8c-1.3,15-5.7,26.1-23.4,27.8
	c-24.3,2.5-48.8,4.8-72.8,9.7c-38.7,7.9-73.6,4.1-102.3-26c-1.8-1.9-4-5.2-7.1-3.6c-3.7,1.9-3.3,6.3-2.7,9.5
	c3.9,17.7-6.2,27.3-19.3,35.7c-4.6,3-8.8,6.7-13.3,9.7c-6.8,4.6-5.6,8.6,0.8,12.2c25.1,14.1,50.5,27.7,75.3,42.5
	c15.8,9.4,36.3,13.5,46,30.3c39.8,68.7,78.4,138.1,117.8,207.1c15.4,27,29.6,52.1,25.7,86.6c-10.2,89.6-15.9,179.7-23.5,269.6
	c-2.6,30.8-5.6,61.7-8.5,92.5C876.8,1401.8,875.1,1403.7,874,1405.7z"/>
<path class="st1" d="M1183.2,773.9c5.1,24.5,0.6,48.9-2.4,73c-6.7,54-21,106.1-44.8,155.3c-18.4,38-41.5,72.8-74.4,100.1
	c-3.9,3.3-4,7.5-4,11.8c0.5,83.9,1,167.8,1.5,251.8c0.1,11.6-0.1,23.2,0.1,34.8c0,4.9-2.7,6.4-6.9,6.4l-145.2-0.3v0.1l-0.2-1
	c-0.8-2.8-2.3-5.7-2.2-8.5c1.7-32.5,3.4-65,5.5-97.4c2.5-38.1,5.3-76.3,8.1-114.4c4.5-61.5,9.6-123,13.6-184.6
	c1.1-17.6-11.3-30.8-19.4-45.3c-18.4-33-36.7-66-55-99c-21.9-39.5-43.7-78.9-65.5-118.5c-5.2-9.5-2.3-14.2,9-14.1
	c28.5,0.3,54.1,10.9,79.9,21.6c32.1,13.3,64.2,26.9,92.2,47.5c24.2,17.9,45.8,39.2,66.4,61.3c5.3,5.7,12.8,10.4,21.1,3.4
	c4.1-3.5,7.5-8,12.1-10.5c25.4-14,48.3-31.7,72.6-47.4l0.4-0.9c3.2-1.9,6.4-3.7,9.5-5.8C1164.6,786.8,1173.9,780.3,1183.2,773.9z"/>
<path class="st2" d="M1145.3,799.9c-24.3,15.7-47.2,33.4-72.6,47.4c-4.6,2.5-8,7-12.1,10.5c-8.3,7-15.8,2.3-21.1-3.4
	c-20.6-22.1-42.2-43.5-66.4-61.3c-28-20.6-60.1-34.3-92.2-47.5c-25.8-10.7-51.3-21.3-79.9-21.6c-11.3-0.1-14.2,4.6-9,14.1
	c21.7,39.6,43.5,79,65.5,118.5c18.3,33,36.6,66.1,55,99.1c8.1,14.5,20.5,27.7,19.4,45.3c-4,61.6-9,123.1-13.6,184.6
	c-2.8,38.1-5.6,76.2-8.1,114.4c-2.1,32.5-3.8,65-5.5,97.4c-0.1,2.8,1.4,5.7,2.2,8.5l-0.6,1l0.8,0.1v-0.1
	c-5.4,20.8-4.1,42.3-7.3,63.3c-1.7,11.2-11.6,8.2-19,8.8c-5.5,0.5-9.5-0.6-9-8.1c1.4-20.1,2.2-40.2,3.1-60.3
	c0.1-1.5-0.6-3.1-0.9-4.7c1-2,2.8-3.8,3-5.9c3-30.8,5.9-61.6,8.5-92.5c7.6-89.9,13.3-180,23.5-269.6c3.9-34.6-10.2-59.7-25.7-86.6
	c-39.5-68.9-78-138.4-117.8-207.1c-9.8-16.9-30.2-20.9-46-30.3c-24.7-14.7-50.2-28.3-75.3-42.5c-6.4-3.6-7.6-7.6-0.8-12.2
	c4.5-3.1,8.7-6.8,13.3-9.7c13.1-8.3,23.2-18,19.3-35.7c-0.7-3.1-1-7.6,2.7-9.5c3.1-1.5,5.3,1.7,7.1,3.6
	c28.7,30.2,63.5,33.9,102.3,26c23.9-4.9,48.4-7.3,72.8-9.7c17.7-1.8,22.1-12.8,23.4-27.8c1.1-13,3-25.8,4.4-38.8
	c2.2-19.5-4-31.2-22.1-39.1c-76.4-33.1-153-65.8-229.3-99c-7.2-3.1-13.8-0.8-20.7-1.2l3.5-1.9c-2.8-1-5.6-2.1-8.4-3.2
	c-15.9-6.2-28.5,2.6-40.8,10.1c-23.6,14.4-45.3,14.2-58.4-2.8c-4.7-6.1-7.1-14.1-10.7-21.2c-12-23.4-16.4-25.1-44.7-18.8
	c-6.4,1.4-13,2.5-19.4,3.6c-1.7,0.3-3.5,0.3-5.2,0.4c0.8-1.9,1.2-4.1,2.5-5.6c8.8-10.4,18.5-23.3,31-24.3c10.5-0.8,23.3-1,34.4,3.2
	c11.9,4.5,17.8,14.4,21.9,25.6c8.8,24.3,17.2,29.7,32.9,20.9c4.5-2.5,9.6-4.1,13.5-7.4c21.5-18.1,43.4-12.2,65.6-1.8
	c5.6,2.6,10.9,7.1,17.9,5.4c-0.3,5.7,4.5,6.7,8.1,8.3c40.2,18.1,80.4,36.1,120.5,54.5c8.3,3.8,13.7,2.1,18.4-5.4
	c17.9-28,36.8-55.4,53.8-83.9c7.8-13,20.1-23.7,22.8-39.7c2.2-1.5,4.8-2.6,6.6-4.5c15.2-16,28.5-33.5,36.4-54.1
	c5.2-13.5-7-23.3-11.8-34.6c-2.3-5.4-10-12.7-6.5-15.5c6.3-5.1,16.4-2.9,23.8,0.3c12.9,5.8,14,20.1,18.5,31.4
	c9,22.5-3.9,40.2-15.6,57.6c-8.2,12.2-16.9,23.9-25.4,35.9c-3-0.4-4.5,1.8-5.9,3.8c-25.5,37.1-51.1,74.3-76.6,111.5
	c-5,7.3-3.3,12.6,4.1,16.8c19.4,10.9,38.6,22.3,58.4,32.6c12.4,6.4,18.2,14.8,17.3,29.2c-1.2,17.5-0.4,35-0.3,52.5
	c0,4.1-1.2,9.7,3.9,11.2c4.8,1.4,6.7-4,9-7.1c34.7-46.7,69.3-93.5,103.7-140.4c3.4-4.6,9-8.3,8.1-15.3c18.6-10.9,18.9-29.3,20-47.6
	c1.2-20.1,2.5-40.4,5.2-60.3c2.3-17,17.7-24.5,29.2-34.3c9.2-7.9,19.3-14.6,28.2-22.7c4.9-4.5,9,0,13.4-0.6l0,0
	c14.8,6.9,7.1,11.4-0.9,18.1c-16.8,14.2-33.8,28.5-48.5,44.8c-7.3,8-4.5,21-4.5,32.2c0.2,20.2,5.3,41.1-4.5,60.4
	c-5.3,10.6-12.3,20.3-18.5,30.5c-3.6-1.3-4.6,1.9-6,3.8C977.4,547,918.3,624.2,859.1,701.5c-8.1,10.5-5.3,16.5,4.9,22.3
	c26.1,14.7,52.8,28.2,81.7,36.4c12.6,3.6,26,12.6,38.3-1.9c47.8-55.9,96-111.5,143.7-167.6c6.6-7.8,16.4-13.9,17.3-25.7
	c11.1-6.8,20-17.1,33.3-20.6c11.5-3.1,23.6-5.3,33.9-10.7c14.4-7.5,12.5-23.9,15.1-37.1c3.7-19.4,9-36,30.7-43.3
	c18.7-6.3,26.3-21.3,24.7-41.1c-0.3-4.5,0.4-12.6,2.2-13.1c5.4-1.5,9.2,3.9,12.7,7.8c14.8,16.5,12.6,43.3-9.8,55.2
	c-25.7,13.7-37.5,32.2-39.6,60.2c-1.8,24.1-18.3,36.2-40.6,40.7c-16.6,3.4-31.9,8.6-43.6,21.6c-5-1-7.6,2.7-10.3,5.6
	c-20.8,23.4-41.8,46.6-61.9,70.6c-29.8,35.6-61.7,69.6-92.6,104.3c-6.3,7.1-12.5,13.8-4.4,24.2c12.3,15.8,24.6,31.9,41,43.2
	c10.3,7.1,19.3,26.3,37.4,6.9c17.7-19,39-34.7,58.6-52c15.4-13.7,30.4-27.9,46-41.3c22.6-19.4,45.7-38.3,68.5-57.4
	c19.7-10.6,39.8-7.3,57.1,3.3c27.7,17,51.6,12.1,75.5-6c22.5-17,47.5-17,73.4-10.1c4.3,1.2,3.9,6.2,6.4,8.8l0,0
	c5.5,16.5-0.8,22.1-16.2,15.8c-25.5-10.4-45.6,2.8-63.9,15.8c-26.1,18.5-50.5,16.1-77.3,3.2c-12.1-5.8-25-16.8-39.8-6.7
	c-13.6,9.4-26.4,19.9-39.5,30.1s-26,20.8-38.9,31.2c-9.3,6.4-18.6,12.9-28,19.3c-3.1,2.1-6.3,3.9-9.5,5.8l-1.1,0.2L1145.3,799.9z
	 M710.7,651.9c-8-0.3-12.1,2.3-12.7,7c-0.8,6.2,4.9,8.1,9.5,9.9c33.6,12.8,67.2,25.4,100.9,38c5.7,2.1,11.8,3.4,16.2-1.9
	c14.7-17.9,28.9-36.1,43.4-54.1c1.8-2.3,2.9-4.8,1.4-7.3c-1.5-2.7-4.6-4.1-7.7-3.6c-27.1,3.3-54.3,6.3-81.3,9.9
	c-14.9,2-28.1,13.2-44.8,6.6C726.9,653.2,717.2,653,710.7,651.9L710.7,651.9z"/>
<path class="st1" d="M1145,564.9c-0.8,11.8-10.7,18-17.3,25.7c-47.6,56.1-95.8,111.7-143.7,167.6c-12.3,14.4-25.7,5.4-38.3,1.9
	c-28.9-8.2-55.6-21.7-81.7-36.4c-10.2-5.8-13-11.7-4.9-22.3c59.3-77.1,118.5-154.3,177.4-231.8c1.4-1.9,2.4-5.1,6-3.8
	c29.2,8.1,51.1,26.5,70.3,48.9C1126,530,1135.4,547.5,1145,564.9z"/>
<path class="st1" d="M1246.5,688.6c-22.9,19.1-45.9,38-68.5,57.4c-15.6,13.4-30.6,27.7-46,41.3c-19.6,17.3-40.8,33-58.6,52
	c-18.1,19.4-27.1,0.2-37.4-6.9c-16.4-11.3-28.7-27.4-41-43.2c-8.1-10.4-1.9-17.1,4.4-24.2c30.9-34.7,62.8-68.6,92.6-104.3
	c20.1-24,41.1-47.2,61.9-70.6c2.6-2.9,5.3-6.6,10.3-5.6c19.3,4.8,33.5,17.4,46.8,31c17.5,17.8,28.8,39.3,35.9,63
	C1247.8,681.5,1246.7,685.2,1246.5,688.6z"/>
<path class="st1" d="M875.7,334.3c-2.7,16-15,26.6-22.8,39.7c-17,28.5-35.9,55.9-53.8,83.9c-4.8,7.5-10.2,9.2-18.4,5.4
	c-40.1-18.3-80.3-36.3-120.4-54.5c-3.6-1.6-8.4-2.7-8.1-8.3c27.9-37.7,55.8-75.4,83.7-113.1c25.4-34.6,22.8-44.6,75.7-19
	c24.3,11.7,44.8,30.1,59.1,53C873,325.3,874.1,330,875.7,334.3z"/>
<path class="st1" d="M1023.3,445.6c0.9,7-4.7,10.7-8.1,15.3c-34.4,46.9-69,93.7-103.7,140.4c-2.3,3-4.2,8.5-9,7.1
	c-5.1-1.5-3.9-7.1-3.9-11.2c-0.1-17.5-0.9-35.1,0.3-52.5c1-14.5-4.9-22.8-17.3-29.2c-19.8-10.2-38.9-21.7-58.4-32.6
	c-7.4-4.2-9.1-9.5-4.1-16.8c25.6-37.1,51.1-74.3,76.6-111.5c1.4-2,2.9-4.2,5.9-3.8c35.3,7.9,62.4,29.3,87.5,53.5
	C1002,416.8,1015.3,429.1,1023.3,445.6z"/>
<path class="st3" d="M1458.9,684.7l0.2-0.5L1458.9,684.7L1458.9,684.7z"/>
<polygon class="st3" points="1119.3,279.9 1119.4,279.8 1119.3,279.9 "/>
<path class="st0" d="M907,1406.8l-0.8-0.1l0.6-1L907,1406.8z"/>
<path class="st1" d="M710.7,651.9c6.5,1.1,16.3,1.3,24.8,4.6c16.7,6.7,29.9-4.5,44.8-6.6c27.1-3.7,54.2-6.6,81.3-9.9
	c3.1-0.5,6.1,0.9,7.7,3.6c1.5,2.5,0.5,5-1.4,7.3c-14.5,18-28.7,36.2-43.4,54.1c-4.4,5.3-10.5,4-16.2,1.9
	c-33.6-12.6-67.3-25.3-100.9-38c-4.6-1.8-10.3-3.7-9.5-9.9C698.6,654.2,702.7,651.6,710.7,651.9z"/>
<path class="st1" d="M1145.3,799.9l-0.7-0.7l1.1-0.2L1145.3,799.9z"/>
<text transform="matrix(0.3782 -0.9257 0.9257 0.3782 210.5005 630.1497)" class="st0 st4 st5">S</text>
<text transform="matrix(0.4834 -0.8754 0.8754 0.4834 238.76 560.2905)" class="st0 st4 st6">H</text>
<text transform="matrix(0.5837 -0.812 0.812 0.5837 278.8599 487.9903)" class="st0 st4 st6">E</text>
<text transform="matrix(0.6712 -0.7413 0.7413 0.6712 324.4097 424.9409)" class="st0 st4 st7">F</text>
<text transform="matrix(0.7436 -0.6686 0.6686 0.7436 372.2601 371.8199)" class="st0 st4 st6">F</text>
<text transform="matrix(0.7948 -0.6068 0.6068 0.7948 425.8399 324.55)" class="st0 st4 st6">I</text>
<text transform="matrix(0.8412 -0.5408 0.5408 0.8412 455.1694 301.0806)" class="st0 st4 st8">E</text>
<text transform="matrix(0.8971 -0.4418 0.4418 0.8971 520.88 259.4999)" class="st0 st4 st6">L</text>
<text transform="matrix(0.9421 -0.3355 0.3355 0.9421 583.2801 228.2599)" class="st0 st4 st6">D</text>
<text transform="matrix(0.9927 -0.1203 0.1203 0.9927 710.8402 186.9798)" class="st0 st4 st9">C</text>
<text transform="matrix(0.9985 5.390453e-002 -5.390453e-002 0.9985 822.52 172.51)" class="st0 st4 st6">O</text>
<text transform="matrix(0.971 0.239 -0.239 0.971 951.8099 179.74)" class="st0 st4 st6">M</text>
<text transform="matrix(0.9105 0.4134 -0.4134 0.9105 1072.4198 209.48)" class="st0 st4 st6">M</text>
<text transform="matrix(0.829 0.5593 -0.5593 0.829 1184.8295 261.8494)" class="st0 st4 st10">U</text>
<text transform="matrix(0.7471 0.6647 -0.6647 0.7471 1263.8097 314.6799)" class="st0 st4 st6">N</text>
<text transform="matrix(0.6816 0.7317 -0.7317 0.6816 1332.2203 377.3104)" class="st0 st4 st11">I</text>
<text transform="matrix(0.6174 0.7867 -0.7867 0.6174 1358.2502 404.3398)" class="st0 st4 st12">T</text>
<text transform="matrix(0.5524 0.8336 -0.8336 0.5524 1402.2896 461.3804)" class="st0 st4 st13">I</text>
<text transform="matrix(0.4802 0.8771 -0.8771 0.4802 1423.7803 492.1799)" class="st0 st4 st6">E</text>
<text transform="matrix(0.3775 0.926 -0.926 0.3775 1461.09 560.4501)" class="st0 st4 st6">S</text>
<text transform="matrix(0.4166 0.9091 -0.9091 0.4166 102.7305 1140.1)" class="st0 st4 st6">A</text>
<text transform="matrix(0.5283 0.8491 -0.8491 0.5283 140.1204 1223.61)" class="st0 st4 st6">G</text>
<text transform="matrix(0.6332 0.774 -0.774 0.6332 200.9706 1320.1707)" class="st0 st4 st14">A</text>
<text transform="matrix(0.6947 0.7193 -0.7193 0.6947 261.4799 1392.2101)" class="st0 st4 st6">I</text>
<text transform="matrix(0.7507 0.6606 -0.6606 0.7507 286.7302 1419.9694)" class="st0 st4 st15">N</text>
<text transform="matrix(0.8164 0.5775 -0.5775 0.8164 356.7012 1480.9705)" class="st0 st4 st16">S</text>
<text transform="matrix(0.8652 0.5015 -0.5015 0.8652 418.1602 1524.5199)" class="st0 st4 st6">T</text>
<text transform="matrix(0.9326 0.3608 -0.3608 0.9326 524.0901 1581.9301)" class="st0 st4 st6">R</text>
<text transform="matrix(0.9665 0.2566 -0.2566 0.9665 598.7 1611.2001)" class="st0 st4 st6">A</text>
<text transform="matrix(0.9911 0.1329 -0.1329 0.9911 686.96 1635.39)" class="st0 st4 st6">C</text>
<text transform="matrix(0.9992 4.030618e-002 -4.030618e-002 0.9992 798.42 1648.58)" class="st0 st4 st6">I</text>
<text transform="matrix(0.9996 -2.879395e-002 2.879395e-002 0.9996 835.87 1650.75)" class="st0 st4 st6">S</text>
<text transform="matrix(0.9884 -0.152 0.152 0.9884 911.35 1650.0798)" class="st0 st4 st6">M</text>
<text transform="matrix(0.9397 -0.342 0.342 0.9397 1080.55 1617.6599)" class="st0 st4 st6">&amp;</text>
<text transform="matrix(0.8716 -0.4901 0.4901 0.8716 1210.38 1565.3201)" class="st0 st4 st6">F</text>
<text transform="matrix(0.8211 -0.5708 0.5708 0.8211 1267.6392 1534.0798)" class="st0 st4 st17">A</text>
<text transform="matrix(0.7531 -0.6579 0.6579 0.7531 1347.6901 1477.51)" class="st0 st4 st6">S</text>
<text transform="matrix(0.6716 -0.7409 0.7409 0.6716 1405.21 1428.6798)" class="st0 st4 st6">C</text>
<text transform="matrix(0.6 -0.8 0.8 0.6 1479.28 1344.3804)" class="st0 st4 st6">I</text>
<text transform="matrix(0.5421 -0.8403 0.8403 0.5421 1502.3 1314.7798)" class="st0 st4 st6">S</text>
<text transform="matrix(0.4335 -0.9012 0.9012 0.4335 1544.5 1252.1503)" class="st0 st4 st6">M</text>
</svg>
