<svg id="fist_Image" data-name="fist Image" xmlns="http://www.w3.org/2000/svg" viewBox="0 0 1700 1700"><defs><style>.cls-1{isolation:isolate;}.cls-2{fill:#00f460;fill-rule:evenodd;}.cls-3{fill:#000503;}.cls-4{fill:#2da5dc;}.cls-5{fill:#fff;}</style></defs><title>SCARF-no text</title><g id="Ellipse_1" data-name="Ellipse 1" class="cls-1"><g id="Ellipse_1-2" data-name="Ellipse 1"><path class="cls-2" d="M900,1639A739.22,739.22,0,0,1,612.38,219,739.22,739.22,0,0,1,1187.62,1581,734.25,734.25,0,0,1,900,1639Z" transform="translate(-50 -50)"/><path d="M900,272a624,624,0,0,1,351,107.12A632.38,632.38,0,0,1,1420.88,549a626.88,626.88,0,0,1,0,701.93A632.38,632.38,0,0,1,1251,1420.88a626.88,626.88,0,0,1-701.93,0A632.38,632.38,0,0,1,379.12,1251a626.88,626.88,0,0,1,0-701.93A632.38,632.38,0,0,1,549,379.12,624,624,0,0,1,900,272m0-222C430.56,50,50,430.56,50,900s380.56,850,850,850,850-380.56,850-850S1369.44,50,900,50h0Z" transform="translate(-50 -50)"/></g></g><path class="cls-3" d="M924,1455.67a57.38,57.38,0,0,1-7.85,1.06c-74.44,0-148.87-.11-223.31.1-9.14,0-12-2.84-10.7-12.09q22.65-162.19,44.75-324.46c1.57-11.51-7.9-18.26-13.36-26.38Q622.23,958.14,530.33,822.76c-15-22.18-29.89-44.44-45.09-66.49-7.5-10.88-7.15-21.44.16-32q85.42-123.14,171-246.14c2.69-3.86,6.77-6.73,10.21-10.06,6.86,0.48,13.43-1.92,20.67,1.24,76.33,33.25,152.9,65.93,229.29,99,18.11,7.85,24.31,19.6,22.09,39.08-1.48,12.92-3.35,25.81-4.43,38.77-1.25,15-5.72,26.08-23.39,27.85-24.35,2.45-48.85,4.84-72.78,9.74-38.74,7.94-73.58,4.14-102.25-26-1.81-1.9-4-5.17-7.07-3.61-3.68,1.87-3.34,6.33-2.65,9.46,3.91,17.66-6.22,27.32-19.31,35.67-4.62,2.95-8.76,6.65-13.3,9.73-6.81,4.62-5.61,8.59.76,12.18,25.11,14.13,50.53,27.71,75.27,42.45,15.81,9.42,36.26,13.45,46.05,30.33,39.83,68.7,78.36,138.15,117.82,207.07,15.43,27,29.59,52.07,25.66,86.62-10.21,89.6-15.89,179.72-23.5,269.62-2.61,30.85-5.56,61.67-8.53,92.48C926.81,1451.83,925.06,1453.71,924,1455.67Z" transform="translate(-50 -50)"/><path class="cls-3" d="M1233.19,823.87c5.08,24.53.61,48.9-2.4,73-6.74,54-21,106.1-44.81,155.26-18.45,38-41.46,72.8-74.39,100.1-3.95,3.27-4,7.48-4,11.78q0.71,125.88,1.51,251.77c0.07,11.6-.05,23.19.06,34.79,0,4.91-2.66,6.39-6.95,6.38l-145.16-.34v0.13l-0.15-1c-0.76-2.85-2.3-5.73-2.15-8.53,1.67-32.49,3.38-65,5.5-97.44,2.49-38.14,5.29-76.26,8.11-114.37,4.55-61.54,9.62-123,13.6-184.62,1.14-17.62-11.32-30.82-19.38-45.27Q935,956,907.56,906.47,874.77,847.28,842.11,788c-5.21-9.5-2.33-14.21,9-14.08,28.55,0.32,54.12,10.92,79.9,21.57,32.11,13.27,64.2,26.9,92.17,47.53,24.24,17.88,45.8,39.19,66.43,61.32,5.31,5.7,12.81,10.37,21.06,3.37,4.07-3.45,7.5-8,12.05-10.47,25.4-14,48.31-31.71,72.56-47.39l0.45-.9c3.17-1.93,6.44-3.73,9.51-5.81C1214.6,836.79,1223.88,830.31,1233.19,823.87Z" transform="translate(-50 -50)"/><path class="cls-4" d="M1195.28,849.87c-24.25,15.69-47.16,33.41-72.56,47.39-4.56,2.51-8,7-12.05,10.47-8.25,7-15.75,2.32-21.06-3.37-20.63-22.14-42.19-43.45-66.43-61.32-28-20.64-60.06-34.26-92.17-47.53-25.78-10.65-51.35-21.25-79.9-21.57-11.32-.13-14.2,4.59-9,14.08q32.53,59.33,65.45,118.45,27.46,49.56,55,99.06c8.06,14.45,20.52,27.65,19.38,45.27-4,61.58-9.05,123.08-13.6,184.62-2.82,38.12-5.63,76.23-8.11,114.37-2.12,32.46-3.83,65-5.5,97.44-0.14,2.8,1.4,5.68,2.15,8.53l-0.6,1,0.75,0.06v-0.13c-5.43,20.76-4.07,42.31-7.29,63.29-1.71,11.16-11.62,8.18-19,8.8-5.47.46-9.51-.56-9-8.05,1.4-20.09,2.16-40.23,3.08-60.35,0.07-1.54-.56-3.11-0.87-4.67,1-2,2.78-3.85,3-5.89,3-30.82,5.92-61.64,8.53-92.48,7.61-89.9,13.29-180,23.5-269.62,3.94-34.55-10.22-59.67-25.66-86.62-39.46-68.91-78-138.36-117.82-207.07-9.79-16.88-30.24-20.91-46.05-30.33-24.74-14.74-50.17-28.33-75.27-42.45-6.37-3.58-7.57-7.56-.76-12.18,4.54-3.08,8.68-6.79,13.3-9.73,13.09-8.35,23.22-18,19.31-35.67-0.69-3.13-1-7.59,2.65-9.46,3.06-1.55,5.27,1.71,7.07,3.61,28.67,30.15,63.51,33.94,102.25,26,23.93-4.9,48.43-7.3,72.78-9.74,17.67-1.77,22.14-12.84,23.39-27.85,1.08-13,3-25.85,4.43-38.77,2.22-19.48-4-31.23-22.09-39.08-76.39-33.1-153-65.78-229.29-99-7.23-3.15-13.81-.75-20.67-1.24l3.53-1.88c-2.81-1.05-5.63-2.07-8.42-3.16-15.94-6.17-28.5,2.59-40.78,10.1-23.59,14.42-45.33,14.18-58.39-2.75-4.74-6.15-7.09-14.13-10.72-21.17-12.05-23.38-16.41-25.14-44.74-18.8-6.43,1.44-12.95,2.49-19.44,3.63-1.7.3-3.46,0.29-5.19,0.42,0.8-1.89,1.21-4.11,2.47-5.61,8.75-10.37,18.5-23.29,31-24.28,10.55-.83,23.32-1,34.44,3.18,11.91,4.48,17.83,14.39,21.89,25.61,8.79,24.27,17.19,29.67,32.88,20.86,4.47-2.51,9.62-4.15,13.47-7.38,21.54-18.08,43.36-12.16,65.63-1.79,5.61,2.61,10.93,7.07,17.94,5.41-0.32,5.67,4.51,6.72,8.07,8.33C750.39,477,790.64,495,830.71,513.32c8.25,3.77,13.65,2.08,18.44-5.42,17.89-28,36.75-55.42,53.8-83.92,7.81-13.05,20.12-23.69,22.79-39.7,2.23-1.48,4.83-2.6,6.62-4.5,15.15-16,28.53-33.51,36.4-54.13,5.17-13.55-7-23.27-11.81-34.57-2.28-5.41-9.95-12.72-6.5-15.48,6.31-5.06,16.44-2.93,23.76.34,12.89,5.76,14,20.15,18.47,31.41,9,22.52-3.94,40.18-15.59,57.58-8.15,12.17-16.92,23.93-25.41,35.87-3-.39-4.51,1.79-5.91,3.81q-38.32,55.71-76.6,111.46c-5,7.31-3.35,12.62,4.06,16.77,19.43,10.9,38.59,22.33,58.37,32.56,12.4,6.41,18.23,14.77,17.26,29.23-1.17,17.45-.39,35-0.29,52.55,0,4.12-1.21,9.7,3.9,11.18,4.76,1.38,6.72-4,9-7.08q52.05-70,103.7-140.38c3.38-4.61,9-8.31,8.12-15.3,18.55-10.9,18.92-29.27,20-47.65,1.22-20.15,2.47-40.36,5.23-60.33,2.34-17,17.67-24.45,29.19-34.34,9.16-7.86,19.27-14.63,28.22-22.71,4.94-4.46,9-.05,13.39-0.64v0c14.79,6.88,7.05,11.43-.9,18.12-16.84,14.17-33.79,28.53-48.47,44.82-7.25,8-4.54,21-4.46,32.17,0.15,20.22,5.29,41.1-4.49,60.4-5.35,10.57-12.27,20.34-18.48,30.47-3.6-1.29-4.58,1.91-6,3.8q-88.68,115.89-177.4,231.75C901,762,903.8,767.93,914,773.71c26.11,14.72,52.82,28.18,81.73,36.37,12.59,3.57,26,12.56,38.33-1.86,47.84-55.89,96-111.49,143.66-167.56,6.61-7.78,16.43-13.9,17.27-25.73,11.09-6.85,20-17.08,33.25-20.62,11.48-3.06,23.56-5.34,33.93-10.74,14.44-7.52,12.53-23.87,15.09-37.12,3.74-19.38,9-36,30.71-43.33,18.66-6.28,26.27-21.31,24.74-41.08-0.35-4.51.37-12.6,2.24-13.12,5.4-1.49,9.16,3.9,12.67,7.8,14.85,16.47,12.56,43.28-9.8,55.22-25.72,13.74-37.48,32.18-39.57,60.19-1.8,24.08-18.27,36.22-40.55,40.74-16.61,3.37-31.93,8.63-43.59,21.63-5-1-7.63,2.69-10.25,5.63-20.82,23.38-41.82,46.57-61.94,70.61-29.82,35.63-61.67,69.56-92.61,104.26-6.32,7.09-12.47,13.76-4.37,24.17,12.29,15.8,24.61,31.9,41,43.19,10.28,7.08,19.31,26.3,37.42,6.92,17.74-19,39-34.65,58.58-51.95,15.44-13.66,30.37-27.9,46-41.32,22.61-19.41,45.66-38.31,68.53-57.42,19.7-10.58,39.85-7.26,57.09,3.32,27.65,17,51.58,12.1,75.51-6,22.51-17,47.51-17.05,73.36-10.1,4.31,1.16,3.94,6.15,6.44,8.85l0,0c5.53,16.51-.75,22.06-16.21,15.76-25.46-10.39-45.59,2.75-63.95,15.77-26.11,18.51-50.53,16.11-77.34,3.15-12.08-5.84-25-16.81-39.77-6.66-13.62,9.36-26.45,19.89-39.48,30.1s-26,20.76-38.95,31.15c-9.31,6.44-18.59,12.92-28,19.29-3.07,2.09-6.33,3.88-9.51,5.81l-1.13.17Zm-434.63-148c-8-.35-12.07,2.33-12.7,7-0.83,6.16,4.89,8.12,9.51,9.88q50.39,19.14,100.87,38c5.66,2.13,11.78,3.44,16.15-1.88,14.65-17.87,28.91-36.06,43.38-54.08,1.82-2.27,2.91-4.75,1.38-7.28a7.35,7.35,0,0,0-7.66-3.57c-27.11,3.31-54.27,6.25-81.33,9.92-14.91,2-28.12,13.21-44.84,6.57C776.93,703.18,767.17,703,760.65,701.91Z" transform="translate(-50 -50)"/><path class="cls-3" d="M1195,614.92c-0.85,11.83-10.66,18-17.27,25.73-47.63,56.07-95.82,111.66-143.66,167.56-12.35,14.43-25.74,5.43-38.33,1.86-28.91-8.19-55.62-21.65-81.73-36.37C903.8,767.93,901,762,909.11,751.44q89-115.62,177.4-231.75c1.45-1.9,2.43-5.09,6-3.8,29.15,8.07,51.07,26.55,70.32,48.88C1176,580,1185.44,597.49,1195,614.92Z" transform="translate(-50 -50)"/><path class="cls-3" d="M1296.53,738.59c-22.86,19.12-45.91,38-68.53,57.42-15.64,13.42-30.56,27.67-46,41.32-19.56,17.3-40.84,33-58.58,51.95-18.11,19.38-27.13.16-37.42-6.92-16.39-11.29-28.71-27.39-41-43.19-8.1-10.41-1.95-17.09,4.37-24.17,30.94-34.7,62.78-68.63,92.61-104.26,20.12-24,41.12-47.23,61.94-70.61,2.62-2.94,5.27-6.62,10.25-5.63,19.28,4.78,33.47,17.4,46.83,31,17.47,17.79,28.77,39.28,35.91,63C1297.84,731.54,1296.71,735.21,1296.53,738.59Z" transform="translate(-50 -50)"/><path class="cls-3" d="M925.74,384.28c-2.67,16-15,26.64-22.79,39.7-17,28.5-35.9,55.92-53.8,83.92-4.79,7.5-10.19,9.19-18.44,5.42C790.64,495,750.39,477,710.28,458.81c-3.56-1.62-8.39-2.67-8.07-8.33q41.84-56.57,83.66-113.15c25.44-34.58,22.81-44.57,75.7-19a141.65,141.65,0,0,1,59.07,53.05C923,375.25,924.07,380,925.74,384.28Z" transform="translate(-50 -50)"/><path class="cls-3" d="M1073.26,495.61c0.9,7-4.74,10.69-8.12,15.3q-51.62,70.36-103.7,140.38c-2.26,3-4.22,8.47-9,7.08-5.11-1.48-3.87-7.06-3.9-11.18-0.1-17.52-.88-35.11.29-52.55,1-14.46-4.86-22.82-17.26-29.23-19.78-10.23-38.94-21.66-58.37-32.56-7.41-4.16-9.1-9.46-4.06-16.77q38.37-55.68,76.6-111.46c1.39-2,2.87-4.2,5.91-3.81,35.26,7.86,62.36,29.26,87.47,53.53C1052,466.75,1065.27,479.07,1073.26,495.61Z" transform="translate(-50 -50)"/><path class="cls-4" d="M1508.93,734.65l0.2-.45-0.24.41Z" transform="translate(-50 -50)"/><polygon class="cls-4" points="1119.33 279.94 1119.42 279.81 1119.32 279.91 1119.33 279.94"/><path class="cls-5" d="M957,1456.78l-0.75-.06,0.6-1Z" transform="translate(-50 -50)"/><path class="cls-3" d="M760.65,701.91c6.51,1.13,16.28,1.27,24.76,4.64,16.72,6.65,29.93-4.55,44.84-6.57,27.06-3.67,54.22-6.61,81.33-9.92a7.35,7.35,0,0,1,7.66,3.57c1.53,2.52.45,5-1.38,7.28-14.47,18-28.73,36.21-43.38,54.08-4.37,5.32-10.49,4-16.15,1.88q-50.46-18.95-100.87-38c-4.62-1.75-10.33-3.71-9.51-9.88C748.58,704.24,752.69,701.57,760.65,701.91Z" transform="translate(-50 -50)"/><path class="cls-3" d="M1195.28,849.87l-0.68-.73,1.13-.17Z" transform="translate(-50 -50)"/></svg>